<?xml version="1.0" encoding="utf-8" standalone="no"?>
<!DOCTYPE svg PUBLIC "-//W3C//DTD SVG 1.1//EN"
  "http://www.w3.org/Graphics/SVG/1.1/DTD/svg11.dtd">
<svg height="162pt" version="1.1" viewBox="0 0 162 162" width="162pt" xmlns="http://www.w3.org/2000/svg" xmlns:xlink="http://www.w3.org/1999/xlink">
 <metadata>
  <rdf:RDF xmlns:cc="http://creativecommons.org/ns#" xmlns:dc="http://purl.org/dc/elements/1.1/" xmlns:rdf="http://www.w3.org/1999/02/22-rdf-syntax-ns#">
   <cc:Work>
    <dc:type rdf:resource="http://purl.org/dc/dcmitype/StillImage"/>
    <dc:date>2021-09-01T10:48:54.619328</dc:date>
    <dc:format>image/svg+xml</dc:format>
    <dc:creator>
     <cc:Agent>
      <dc:title>Matplotlib v3.4.3, https://matplotlib.org/</dc:title>
     </cc:Agent>
    </dc:creator>
   </cc:Work>
  </rdf:RDF>
 </metadata>
 <defs>
  <style type="text/css">*{stroke-linecap:butt;stroke-linejoin:round;}</style>
 </defs>
 <g id="figure_1">
  <g id="patch_1">
   <path d="M 0 162 
L 162 162 
L 162 0 
L 0 0 
z
" style="fill:none;"/>
  </g>
  <g id="axes_1">
   <g id="patch_2">
    <path d="M 118.21876 33.369946 
C 113.135722 29.676903 107.502924 26.806849 101.527455 24.865301 
C 95.551985 22.923753 89.307981 21.9348 83.025 21.9348 
L 83.025 36.9036 
C 87.737235 36.9036 92.420239 37.645315 96.901841 39.101476 
C 101.383443 40.557637 105.608041 42.710177 109.42032 45.479959 
L 118.21876 33.369946 
z
" style="fill:#fde725;"/>
   </g>
   <g id="patch_3">
    <path d="M 83.024992 21.9348 
C 75.952805 21.934801 68.936228 23.187804 62.301165 25.635609 
C 55.666101 28.083414 49.516895 31.687527 44.139163 36.280545 
C 38.761431 40.873564 34.239744 46.383257 30.784124 52.553711 
C 27.328504 58.724166 24.993295 65.458345 23.886962 72.443461 
C 22.780629 79.428577 22.920571 86.554782 24.300286 93.491078 
C 25.680002 100.427374 28.277795 107.064681 31.973002 113.09471 
C 35.66821 119.12474 40.402722 124.452664 45.956629 128.831011 
C 51.510537 133.209358 57.7965 136.569275 64.522549 138.7547 
C 71.248598 140.940126 78.308959 141.916691 85.375693 141.639038 
C 92.442427 141.361385 99.404402 139.83388 105.93825 137.127471 
C 112.472098 134.421062 118.475067 130.578311 123.668332 125.777706 
C 128.861597 120.9771 133.163489 115.294135 136.374195 108.99277 
C 139.5849 102.691406 141.653926 95.870739 142.485173 88.847574 
C 143.316419 81.824409 142.896812 74.709193 141.245843 67.832412 
C 139.594874 60.95563 136.738505 54.425429 132.809409 48.545121 
C 128.880313 42.664813 123.940279 37.526873 118.21876 33.369946 
L 109.42032 45.479959 
C 113.711459 48.597655 117.416485 52.45111 120.363307 56.861341 
C 123.310129 61.271572 125.452406 66.169223 126.690632 71.326809 
C 127.928859 76.484395 128.243564 81.820807 127.620129 87.088181 
C 126.996695 92.355554 125.444925 97.471055 123.036896 102.197078 
C 120.628867 106.923101 117.402448 111.185325 113.507499 114.785779 
C 109.61255 118.386233 105.110323 121.268296 100.209937 123.298103 
C 95.309551 125.32791 90.08807 126.473539 84.78802 126.681779 
C 79.487969 126.890019 74.192699 126.157594 69.148162 124.518525 
C 64.103625 122.879456 59.389153 120.359519 55.223722 117.075758 
C 51.058291 113.791998 47.507407 109.796055 44.736002 105.273533 
C 41.964596 100.75101 40.016252 95.77303 38.981465 90.570808 
C 37.946678 85.368586 37.841722 80.023933 38.671472 74.785096 
C 39.501221 69.546259 41.252628 64.495624 43.844343 59.867783 
C 46.436058 55.239942 49.827323 51.107673 53.860622 47.662909 
C 57.893921 44.218145 62.505826 41.515061 67.482123 39.679207 
C 72.458421 37.843353 77.720854 36.903601 83.024994 36.9036 
L 83.024992 21.9348 
z
" style="fill:#ffffff;"/>
   </g>
   <g id="matplotlib.axis_1"/>
   <g id="matplotlib.axis_2"/>
   <g id="text_1">
    <!-- ALA -->
    <g transform="translate(55.7125 76.518149)scale(0.25 -0.25)">
     <defs>
      <path d="M 3419 850 
L 1538 850 
L 1241 0 
L 31 0 
L 1759 4666 
L 3194 4666 
L 4922 0 
L 3713 0 
L 3419 850 
z
M 1838 1716 
L 3116 1716 
L 2478 3572 
L 1838 1716 
z
" id="DejaVuSans-Bold-41" transform="scale(0.015625)"/>
      <path d="M 588 4666 
L 1791 4666 
L 1791 909 
L 3903 909 
L 3903 0 
L 588 0 
L 588 4666 
z
" id="DejaVuSans-Bold-4c" transform="scale(0.015625)"/>
     </defs>
     <use xlink:href="#DejaVuSans-Bold-41"/>
     <use x="77.392578" xlink:href="#DejaVuSans-Bold-4c"/>
     <use x="141.113281" xlink:href="#DejaVuSans-Bold-41"/>
    </g>
    <!-- 191 -->
    <g transform="translate(56.933203 104.51268)scale(0.25 -0.25)">
     <defs>
      <path d="M 750 831 
L 1813 831 
L 1813 3847 
L 722 3622 
L 722 4441 
L 1806 4666 
L 2950 4666 
L 2950 831 
L 4013 831 
L 4013 0 
L 750 0 
L 750 831 
z
" id="DejaVuSans-Bold-31" transform="scale(0.015625)"/>
      <path d="M 641 103 
L 641 966 
Q 928 831 1190 764 
Q 1453 697 1709 697 
Q 2247 697 2547 995 
Q 2847 1294 2900 1881 
Q 2688 1725 2447 1647 
Q 2206 1569 1925 1569 
Q 1209 1569 770 1986 
Q 331 2403 331 3084 
Q 331 3838 820 4291 
Q 1309 4744 2131 4744 
Q 3044 4744 3544 4128 
Q 4044 3513 4044 2388 
Q 4044 1231 3459 570 
Q 2875 -91 1856 -91 
Q 1528 -91 1228 -42 
Q 928 6 641 103 
z
M 2125 2350 
Q 2441 2350 2600 2554 
Q 2759 2759 2759 3169 
Q 2759 3575 2600 3781 
Q 2441 3988 2125 3988 
Q 1809 3988 1650 3781 
Q 1491 3575 1491 3169 
Q 1491 2759 1650 2554 
Q 1809 2350 2125 2350 
z
" id="DejaVuSans-Bold-39" transform="scale(0.015625)"/>
     </defs>
     <use xlink:href="#DejaVuSans-Bold-31"/>
     <use x="69.580078" xlink:href="#DejaVuSans-Bold-39"/>
     <use x="139.160156" xlink:href="#DejaVuSans-Bold-31"/>
    </g>
   </g>
  </g>
 </g>
</svg>
