<?xml version="1.0" encoding="utf-8" standalone="no"?>
<!DOCTYPE svg PUBLIC "-//W3C//DTD SVG 1.1//EN"
  "http://www.w3.org/Graphics/SVG/1.1/DTD/svg11.dtd">
<svg height="162pt" version="1.1" viewBox="0 0 162 162" width="162pt" xmlns="http://www.w3.org/2000/svg" xmlns:xlink="http://www.w3.org/1999/xlink">
 <metadata>
  <rdf:RDF xmlns:cc="http://creativecommons.org/ns#" xmlns:dc="http://purl.org/dc/elements/1.1/" xmlns:rdf="http://www.w3.org/1999/02/22-rdf-syntax-ns#">
   <cc:Work>
    <dc:type rdf:resource="http://purl.org/dc/dcmitype/StillImage"/>
    <dc:date>2021-09-01T10:58:31.051348</dc:date>
    <dc:format>image/svg+xml</dc:format>
    <dc:creator>
     <cc:Agent>
      <dc:title>Matplotlib v3.4.3, https://matplotlib.org/</dc:title>
     </cc:Agent>
    </dc:creator>
   </cc:Work>
  </rdf:RDF>
 </metadata>
 <defs>
  <style type="text/css">*{stroke-linecap:butt;stroke-linejoin:round;}</style>
 </defs>
 <g id="figure_1">
  <g id="patch_1">
   <path d="M 0 162 
L 162 162 
L 162 0 
L 0 0 
z
" style="fill:none;"/>
  </g>
  <g id="axes_1">
   <g id="patch_2">
    <path d="M 83.025 136.6956 
C 97.575983 136.6956 111.545881 130.909079 121.83498 120.61998 
C 132.124079 110.330881 137.9106 96.360983 137.9106 81.81 
C 137.9106 67.259017 132.124079 53.289119 121.83498 43.00002 
C 111.545881 32.710921 97.575983 26.9244 83.025 26.9244 
L 83.025 36.9036 
C 94.93035 36.9036 106.360266 41.638026 114.77862 50.05638 
C 123.196974 58.474734 127.9314 69.90465 127.9314 81.81 
C 127.9314 93.71535 123.196974 105.145266 114.77862 113.56362 
C 106.360266 121.981974 94.93035 126.7164 83.025 126.7164 
L 83.025 136.6956 
z
" style="fill:#fde725;"/>
   </g>
   <g id="patch_3">
    <path d="M 83.025 26.9244 
C 68.474017 26.9244 54.504119 32.710921 44.21502 43.00002 
C 33.925921 53.289119 28.1394 67.259017 28.1394 81.81 
C 28.1394 96.360983 33.925921 110.330881 44.21502 120.61998 
C 54.504119 130.909079 68.474017 136.6956 83.025 136.6956 
L 83.025 126.7164 
C 71.11965 126.7164 59.689734 121.981974 51.27138 113.56362 
C 42.853026 105.145266 38.1186 93.71535 38.1186 81.81 
C 38.1186 69.90465 42.853026 58.474734 51.27138 50.05638 
C 59.689734 41.638026 71.11965 36.9036 83.025 36.9036 
L 83.025 26.9244 
z
" style="fill:#ffffff;"/>
   </g>
   <g id="patch_4">
    <path d="M 44.898419 134.28672 
C 53.179388 140.303198 62.76808 144.274966 72.877901 145.876205 
C 82.987723 147.477445 93.334454 146.663141 103.069319 143.500093 
C 112.804183 140.337045 121.653502 134.914177 128.891336 127.676344 
C 136.129169 120.438512 141.552039 111.589194 144.715089 101.85433 
C 147.878139 92.119466 148.692445 81.772735 147.091207 71.662913 
C 145.489969 61.553092 141.518203 51.964399 135.501727 43.683429 
C 129.48525 35.402459 121.593206 28.662016 112.473004 24.015041 
C 103.352802 19.368065 93.260842 16.9452 83.025 16.9452 
L 83.025 26.9244 
C 91.686097 26.9244 100.225448 28.974517 107.942542 32.906573 
C 115.659636 36.838629 122.33752 42.542081 127.428384 49.549055 
C 132.519249 56.55603 135.879974 64.669539 137.234868 73.224004 
C 138.589761 81.778468 137.900733 90.533395 135.224306 98.770587 
C 132.54788 107.007779 127.959297 114.495664 121.834976 120.619984 
C 115.710655 126.744303 108.22277 131.332884 99.985577 134.009309 
C 91.748384 136.685735 82.993458 137.374761 74.438993 136.019866 
C 65.884529 134.664971 57.771021 131.304244 50.764047 126.213378 
L 44.898419 134.28672 
z
" style="fill:#21908d;"/>
   </g>
   <g id="patch_5">
    <path d="M 83.025012 16.9452 
C 69.32904 16.945197 55.978712 21.282979 44.898437 29.333268 
C 33.818161 37.383556 25.567203 48.740021 21.334913 61.765664 
C 17.102622 74.791307 17.10262 88.828671 21.334906 101.854316 
C 25.567192 114.87996 33.818146 126.236428 44.898419 134.28672 
L 50.764047 126.213378 
C 41.388431 119.401593 34.406855 109.792274 30.82569 98.770575 
C 27.244525 87.748876 27.244526 75.871106 30.825695 64.849408 
C 34.406864 53.82771 41.388444 44.218394 50.764062 37.406611 
C 60.13968 30.594828 71.43611 26.924398 83.02501 26.9244 
L 83.025012 16.9452 
z
" style="fill:#ffffff;"/>
   </g>
   <g id="patch_6">
    <path d="M 39.032792 142.360061 
C 48.587756 149.302151 59.651631 153.88496 71.316809 155.732545 
C 82.981988 157.580129 94.920524 156.640547 106.15306 152.990877 
C 117.385596 149.341206 127.596348 143.08405 135.947695 134.732705 
C 144.299042 126.38136 150.556199 116.170608 154.205872 104.938073 
C 157.855545 93.705538 158.795129 81.767002 156.947547 70.101823 
C 155.099965 58.436644 150.517158 47.372768 143.57507 37.817803 
C 136.632981 28.262837 127.526776 20.485403 117.003466 15.123508 
C 106.480157 9.761614 94.835587 6.966 83.025 6.966 
L 83.025 16.9452 
C 93.260842 16.9452 103.352802 19.368065 112.473004 24.015041 
C 121.593206 28.662016 129.48525 35.402459 135.501727 43.683429 
C 141.518203 51.964399 145.489969 61.553092 147.091207 71.662913 
C 148.692445 81.772735 147.878139 92.119466 144.715089 101.85433 
C 141.552039 111.589194 136.129169 120.438512 128.891336 127.676344 
C 121.653502 134.914177 112.804183 140.337045 103.069319 143.500093 
C 93.334454 146.663141 82.987723 147.477445 72.877901 145.876205 
C 62.76808 144.274966 53.179388 140.303198 44.898419 134.28672 
L 39.032792 142.360061 
z
" style="fill:#440154;"/>
   </g>
   <g id="patch_7">
    <path d="M 83.025014 6.966 
C 67.221969 6.965997 51.817745 11.97113 39.032811 21.259924 
C 26.247878 30.548719 16.727542 43.652332 11.84413 58.68192 
C 6.960718 73.711508 6.960715 89.908467 11.844122 104.938057 
C 16.72753 119.967647 26.247861 133.071263 39.032792 142.360061 
L 44.898419 134.28672 
C 33.818146 126.236428 25.567192 114.87996 21.334906 101.854316 
C 17.10262 88.828671 17.102622 74.791307 21.334913 61.765664 
C 25.567203 48.740021 33.818161 37.383556 44.898437 29.333268 
C 55.978712 21.282979 69.32904 16.945197 83.025012 16.9452 
L 83.025014 6.966 
z
" style="fill:#ffffff;"/>
   </g>
   <g id="matplotlib.axis_1"/>
   <g id="matplotlib.axis_2"/>
   <g id="text_1">
    <!-- DSPC -->
    <g transform="translate(45.310156 93.0366)scale(0.25 -0.25)">
     <defs>
      <path d="M 1791 3756 
L 1791 909 
L 2222 909 
Q 2959 909 3348 1275 
Q 3738 1641 3738 2338 
Q 3738 3031 3350 3393 
Q 2963 3756 2222 3756 
L 1791 3756 
z
M 588 4666 
L 1856 4666 
Q 2919 4666 3439 4514 
Q 3959 4363 4331 4000 
Q 4659 3684 4818 3271 
Q 4978 2859 4978 2338 
Q 4978 1809 4818 1395 
Q 4659 981 4331 666 
Q 3956 303 3431 151 
Q 2906 0 1856 0 
L 588 0 
L 588 4666 
z
" id="DejaVuSans-Bold-44" transform="scale(0.015625)"/>
      <path d="M 3834 4519 
L 3834 3531 
Q 3450 3703 3084 3790 
Q 2719 3878 2394 3878 
Q 1963 3878 1756 3759 
Q 1550 3641 1550 3391 
Q 1550 3203 1689 3098 
Q 1828 2994 2194 2919 
L 2706 2816 
Q 3484 2659 3812 2340 
Q 4141 2022 4141 1434 
Q 4141 663 3683 286 
Q 3225 -91 2284 -91 
Q 1841 -91 1394 -6 
Q 947 78 500 244 
L 500 1259 
Q 947 1022 1364 901 
Q 1781 781 2169 781 
Q 2563 781 2772 912 
Q 2981 1044 2981 1288 
Q 2981 1506 2839 1625 
Q 2697 1744 2272 1838 
L 1806 1941 
Q 1106 2091 782 2419 
Q 459 2747 459 3303 
Q 459 4000 909 4375 
Q 1359 4750 2203 4750 
Q 2588 4750 2994 4692 
Q 3400 4634 3834 4519 
z
" id="DejaVuSans-Bold-53" transform="scale(0.015625)"/>
      <path d="M 588 4666 
L 2584 4666 
Q 3475 4666 3951 4270 
Q 4428 3875 4428 3144 
Q 4428 2409 3951 2014 
Q 3475 1619 2584 1619 
L 1791 1619 
L 1791 0 
L 588 0 
L 588 4666 
z
M 1791 3794 
L 1791 2491 
L 2456 2491 
Q 2806 2491 2997 2661 
Q 3188 2831 3188 3144 
Q 3188 3456 2997 3625 
Q 2806 3794 2456 3794 
L 1791 3794 
z
" id="DejaVuSans-Bold-50" transform="scale(0.015625)"/>
      <path d="M 4288 256 
Q 3956 84 3597 -3 
Q 3238 -91 2847 -91 
Q 1681 -91 1000 561 
Q 319 1213 319 2328 
Q 319 3447 1000 4098 
Q 1681 4750 2847 4750 
Q 3238 4750 3597 4662 
Q 3956 4575 4288 4403 
L 4288 3438 
Q 3953 3666 3628 3772 
Q 3303 3878 2944 3878 
Q 2300 3878 1931 3465 
Q 1563 3053 1563 2328 
Q 1563 1606 1931 1193 
Q 2300 781 2944 781 
Q 3303 781 3628 887 
Q 3953 994 4288 1222 
L 4288 256 
z
" id="DejaVuSans-Bold-43" transform="scale(0.015625)"/>
     </defs>
     <use xlink:href="#DejaVuSans-Bold-44"/>
     <use x="83.007812" xlink:href="#DejaVuSans-Bold-53"/>
     <use x="155.029297" xlink:href="#DejaVuSans-Bold-50"/>
     <use x="228.320312" xlink:href="#DejaVuSans-Bold-43"/>
    </g>
   </g>
  </g>
 </g>
</svg>
