<?xml version="1.0" encoding="utf-8" standalone="no"?>
<!DOCTYPE svg PUBLIC "-//W3C//DTD SVG 1.1//EN"
  "http://www.w3.org/Graphics/SVG/1.1/DTD/svg11.dtd">
<svg height="162pt" version="1.1" viewBox="0 0 162 162" width="162pt" xmlns="http://www.w3.org/2000/svg" xmlns:xlink="http://www.w3.org/1999/xlink">
 <metadata>
  <rdf:RDF xmlns:cc="http://creativecommons.org/ns#" xmlns:dc="http://purl.org/dc/elements/1.1/" xmlns:rdf="http://www.w3.org/1999/02/22-rdf-syntax-ns#">
   <cc:Work>
    <dc:type rdf:resource="http://purl.org/dc/dcmitype/StillImage"/>
    <dc:date>2021-09-01T10:52:51.272941</dc:date>
    <dc:format>image/svg+xml</dc:format>
    <dc:creator>
     <cc:Agent>
      <dc:title>Matplotlib v3.4.3, https://matplotlib.org/</dc:title>
     </cc:Agent>
    </dc:creator>
   </cc:Work>
  </rdf:RDF>
 </metadata>
 <defs>
  <style type="text/css">*{stroke-linecap:butt;stroke-linejoin:round;}</style>
 </defs>
 <g id="figure_1">
  <g id="patch_1">
   <path d="M 0 162 
L 162 162 
L 162 0 
L 0 0 
z
" style="fill:none;"/>
  </g>
  <g id="axes_1">
   <g id="patch_2">
    <path d="M 135.224306 98.770587 
C 137.900733 90.533395 138.589761 81.778468 137.234868 73.224004 
C 135.879974 64.669539 132.519249 56.55603 127.428384 49.549055 
C 122.33752 42.542081 115.659636 36.838629 107.942542 32.906573 
C 100.225448 28.974517 91.686097 26.9244 83.025 26.9244 
L 83.025 36.9036 
C 90.111352 36.9036 97.098094 38.580968 103.41208 41.798105 
C 109.726066 45.015242 115.189789 49.681702 119.355042 55.414682 
C 123.520295 61.147661 126.269979 67.785987 127.378528 74.785094 
C 128.487077 81.784201 127.923327 88.947323 125.733523 95.686844 
L 135.224306 98.770587 
z
" style="fill:#fde725;"/>
   </g>
   <g id="patch_3">
    <path d="M 83.025 26.9244 
C 72.903786 26.9244 62.977107 29.724013 54.347353 35.012333 
C 45.7176 40.300652 38.716508 47.874391 34.121573 56.892458 
C 29.526638 65.910525 27.514493 76.02626 28.308594 86.116273 
C 29.102695 96.206286 32.672516 105.88271 38.621616 114.070945 
C 44.570715 122.259179 52.670406 128.64446 62.021188 132.517681 
C 71.37197 136.390903 81.614392 137.603174 91.610996 136.019868 
C 101.607601 134.436562 110.974111 130.118542 118.670343 123.54534 
C 126.366575 116.972138 132.096679 108.396433 135.224306 98.770587 
L 125.733523 95.686844 
C 123.174555 103.562536 118.486288 110.579022 112.189372 115.957096 
C 105.892455 121.335171 98.228946 124.868096 90.049906 126.163528 
C 81.870866 127.45896 73.490703 126.467102 65.840063 123.298103 
C 58.189423 120.129104 51.562404 114.904783 46.694958 108.205318 
C 41.827513 101.505854 38.90675 93.58878 38.257031 85.333314 
C 37.607312 77.077849 39.253613 68.801339 43.013105 61.42292 
C 46.772597 54.044502 52.500764 47.847806 59.561471 43.521 
C 66.622178 39.194193 74.744007 36.9036 83.025 36.9036 
L 83.025 26.9244 
z
" style="fill:#ffffff;"/>
   </g>
   <g id="patch_4">
    <path d="M 83.025 146.6748 
C 100.221617 146.6748 116.731496 139.836184 128.89134 127.67634 
C 141.051184 115.516496 147.8898 99.006617 147.8898 81.81 
C 147.8898 64.613383 141.051184 48.103504 128.89134 35.94366 
C 116.731496 23.783816 100.221617 16.9452 83.025 16.9452 
L 83.025 26.9244 
C 97.575983 26.9244 111.545881 32.710921 121.83498 43.00002 
C 132.124079 53.289119 137.9106 67.259017 137.9106 81.81 
C 137.9106 96.360983 132.124079 110.330881 121.83498 120.61998 
C 111.545881 130.909079 97.575983 136.6956 83.025 136.6956 
L 83.025 146.6748 
z
" style="fill:#21908d;"/>
   </g>
   <g id="patch_5">
    <path d="M 83.025 16.9452 
C 65.828383 16.9452 49.318504 23.783816 37.15866 35.94366 
C 24.998816 48.103504 18.1602 64.613383 18.1602 81.81 
C 18.1602 99.006617 24.998816 115.516496 37.15866 127.67634 
C 49.318504 139.836184 65.828383 146.6748 83.025 146.6748 
L 83.025 136.6956 
C 68.474017 136.6956 54.504119 130.909079 44.21502 120.61998 
C 33.925921 110.330881 28.1394 96.360983 28.1394 81.81 
C 28.1394 67.259017 33.925921 53.289119 44.21502 43.00002 
C 54.504119 32.710921 68.474017 26.9244 83.025 26.9244 
L 83.025 16.9452 
z
" style="fill:#ffffff;"/>
   </g>
   <g id="patch_6">
    <path d="M 39.032792 142.360061 
C 48.587756 149.302151 59.651631 153.88496 71.316809 155.732545 
C 82.981988 157.580129 94.920524 156.640547 106.15306 152.990877 
C 117.385596 149.341206 127.596348 143.08405 135.947695 134.732705 
C 144.299042 126.38136 150.556199 116.170608 154.205872 104.938073 
C 157.855545 93.705538 158.795129 81.767002 156.947547 70.101823 
C 155.099965 58.436644 150.517158 47.372768 143.57507 37.817803 
C 136.632981 28.262837 127.526776 20.485403 117.003466 15.123508 
C 106.480157 9.761614 94.835587 6.966 83.025 6.966 
L 83.025 16.9452 
C 93.260842 16.9452 103.352802 19.368065 112.473004 24.015041 
C 121.593206 28.662016 129.48525 35.402459 135.501727 43.683429 
C 141.518203 51.964399 145.489969 61.553092 147.091207 71.662913 
C 148.692445 81.772735 147.878139 92.119466 144.715089 101.85433 
C 141.552039 111.589194 136.129169 120.438512 128.891336 127.676344 
C 121.653502 134.914177 112.804183 140.337045 103.069319 143.500093 
C 93.334454 146.663141 82.987723 147.477445 72.877901 145.876205 
C 62.76808 144.274966 53.179388 140.303198 44.898419 134.28672 
L 39.032792 142.360061 
z
" style="fill:#440154;"/>
   </g>
   <g id="patch_7">
    <path d="M 83.025014 6.966 
C 67.221969 6.965997 51.817745 11.97113 39.032811 21.259924 
C 26.247878 30.548719 16.727542 43.652332 11.84413 58.68192 
C 6.960718 73.711508 6.960715 89.908467 11.844122 104.938057 
C 16.72753 119.967647 26.247861 133.071263 39.032792 142.360061 
L 44.898419 134.28672 
C 33.818146 126.236428 25.567192 114.87996 21.334906 101.854316 
C 17.10262 88.828671 17.102622 74.791307 21.334913 61.765664 
C 25.567203 48.740021 33.818161 37.383556 44.898437 29.333268 
C 55.978712 21.282979 69.32904 16.945197 83.025012 16.9452 
L 83.025014 6.966 
z
" style="fill:#ffffff;"/>
   </g>
   <g id="matplotlib.axis_1"/>
   <g id="matplotlib.axis_2"/>
   <g id="text_1">
    <!-- GLY -->
    <g transform="translate(57.702734 76.518149)scale(0.25 -0.25)">
     <defs>
      <path d="M 4781 347 
Q 4331 128 3847 18 
Q 3363 -91 2847 -91 
Q 1681 -91 1000 561 
Q 319 1213 319 2328 
Q 319 3456 1012 4103 
Q 1706 4750 2913 4750 
Q 3378 4750 3804 4662 
Q 4231 4575 4609 4403 
L 4609 3438 
Q 4219 3659 3833 3768 
Q 3447 3878 3059 3878 
Q 2341 3878 1952 3476 
Q 1563 3075 1563 2328 
Q 1563 1588 1938 1184 
Q 2313 781 3003 781 
Q 3191 781 3352 804 
Q 3513 828 3641 878 
L 3641 1784 
L 2906 1784 
L 2906 2591 
L 4781 2591 
L 4781 347 
z
" id="DejaVuSans-Bold-47" transform="scale(0.015625)"/>
      <path d="M 588 4666 
L 1791 4666 
L 1791 909 
L 3903 909 
L 3903 0 
L 588 0 
L 588 4666 
z
" id="DejaVuSans-Bold-4c" transform="scale(0.015625)"/>
      <path d="M -63 4666 
L 1253 4666 
L 2316 3003 
L 3378 4666 
L 4697 4666 
L 2919 1966 
L 2919 0 
L 1716 0 
L 1716 1966 
L -63 4666 
z
" id="DejaVuSans-Bold-59" transform="scale(0.015625)"/>
     </defs>
     <use xlink:href="#DejaVuSans-Bold-47"/>
     <use x="82.080078" xlink:href="#DejaVuSans-Bold-4c"/>
     <use x="130.175781" xlink:href="#DejaVuSans-Bold-59"/>
    </g>
    <!-- 932 -->
    <g transform="translate(56.933203 104.51268)scale(0.25 -0.25)">
     <defs>
      <path d="M 641 103 
L 641 966 
Q 928 831 1190 764 
Q 1453 697 1709 697 
Q 2247 697 2547 995 
Q 2847 1294 2900 1881 
Q 2688 1725 2447 1647 
Q 2206 1569 1925 1569 
Q 1209 1569 770 1986 
Q 331 2403 331 3084 
Q 331 3838 820 4291 
Q 1309 4744 2131 4744 
Q 3044 4744 3544 4128 
Q 4044 3513 4044 2388 
Q 4044 1231 3459 570 
Q 2875 -91 1856 -91 
Q 1528 -91 1228 -42 
Q 928 6 641 103 
z
M 2125 2350 
Q 2441 2350 2600 2554 
Q 2759 2759 2759 3169 
Q 2759 3575 2600 3781 
Q 2441 3988 2125 3988 
Q 1809 3988 1650 3781 
Q 1491 3575 1491 3169 
Q 1491 2759 1650 2554 
Q 1809 2350 2125 2350 
z
" id="DejaVuSans-Bold-39" transform="scale(0.015625)"/>
      <path d="M 2981 2516 
Q 3453 2394 3698 2092 
Q 3944 1791 3944 1325 
Q 3944 631 3412 270 
Q 2881 -91 1863 -91 
Q 1503 -91 1142 -33 
Q 781 25 428 141 
L 428 1069 
Q 766 900 1098 814 
Q 1431 728 1753 728 
Q 2231 728 2486 893 
Q 2741 1059 2741 1369 
Q 2741 1688 2480 1852 
Q 2219 2016 1709 2016 
L 1228 2016 
L 1228 2791 
L 1734 2791 
Q 2188 2791 2409 2933 
Q 2631 3075 2631 3366 
Q 2631 3634 2415 3781 
Q 2200 3928 1806 3928 
Q 1516 3928 1219 3862 
Q 922 3797 628 3669 
L 628 4550 
Q 984 4650 1334 4700 
Q 1684 4750 2022 4750 
Q 2931 4750 3382 4451 
Q 3834 4153 3834 3553 
Q 3834 3144 3618 2883 
Q 3403 2622 2981 2516 
z
" id="DejaVuSans-Bold-33" transform="scale(0.015625)"/>
      <path d="M 1844 884 
L 3897 884 
L 3897 0 
L 506 0 
L 506 884 
L 2209 2388 
Q 2438 2594 2547 2791 
Q 2656 2988 2656 3200 
Q 2656 3528 2436 3728 
Q 2216 3928 1850 3928 
Q 1569 3928 1234 3808 
Q 900 3688 519 3450 
L 519 4475 
Q 925 4609 1322 4679 
Q 1719 4750 2100 4750 
Q 2938 4750 3402 4381 
Q 3866 4013 3866 3353 
Q 3866 2972 3669 2642 
Q 3472 2313 2841 1759 
L 1844 884 
z
" id="DejaVuSans-Bold-32" transform="scale(0.015625)"/>
     </defs>
     <use xlink:href="#DejaVuSans-Bold-39"/>
     <use x="69.580078" xlink:href="#DejaVuSans-Bold-33"/>
     <use x="139.160156" xlink:href="#DejaVuSans-Bold-32"/>
    </g>
   </g>
  </g>
 </g>
</svg>
